<svg width="24" height="24" viewBox="0 0 24 24" fill="inherit" xmlns="http://www.w3.org/2000/svg">
<path d="M19.95 21.0027C17.8667 21.0027 15.8042 20.5527 13.7625 19.6527C11.7208 18.7527 9.86667 17.4694 8.2 15.8027C6.53333 14.136 5.25 12.286 4.35 10.2527C3.45 8.21935 3 6.15269 3 4.05269V3.00269H8.9L9.825 8.02769L6.975 10.9027C7.34167 11.5527 7.75 12.1694 8.2 12.7527C8.65 13.336 9.13333 13.8777 9.65 14.3777C10.1333 14.861 10.6625 15.3235 11.2375 15.7652C11.8125 16.2069 12.4333 16.6194 13.1 17.0027L16 14.1027L21 15.1277V21.0027H19.95Z" fill="inherit"/>
</svg>
