<svg width="24" height="24" viewBox="0 0 24 24" fill="inherit" xmlns="http://www.w3.org/2000/svg">
<path d="M10 15C9.71667 15 9.47917 14.9041 9.2875 14.7125C9.09583 14.5208 9 14.2833 9 14V11.575C9 11.3083 9.05 11.0541 9.15 10.8125C9.25 10.5708 9.39167 10.3583 9.575 10.175L18.175 1.57498C18.375 1.37498 18.6 1.22498 18.85 1.12498C19.1 1.02498 19.35 0.974976 19.6 0.974976C19.8667 0.974976 20.1208 1.02498 20.3625 1.12498C20.6042 1.22498 20.825 1.37498 21.025 1.57498L22.425 2.99998C22.6083 3.19998 22.75 3.42081 22.85 3.66248C22.95 3.90414 23 4.14998 23 4.39998C23 4.64998 22.9542 4.89581 22.8625 5.13748C22.7708 5.37914 22.625 5.59998 22.425 5.79998L13.825 14.4C13.6417 14.5833 13.4292 14.7291 13.1875 14.8375C12.9458 14.9458 12.6917 15 12.425 15H10ZM19.6 5.79998L21.025 4.39998L19.625 2.99998L18.2 4.39998L19.6 5.79998ZM5 21C4.45 21 3.97917 20.8041 3.5875 20.4125C3.19583 20.0208 3 19.55 3 19V4.99998C3 4.44998 3.19583 3.97914 3.5875 3.58748C3.97917 3.19581 4.45 2.99998 5 2.99998H11.5C11.7333 2.99998 11.925 3.05831 12.075 3.17498C12.225 3.29164 12.3417 3.44164 12.425 3.62498C12.5083 3.80831 12.5375 3.99164 12.5125 4.17498C12.4875 4.35831 12.3917 4.53331 12.225 4.69998L7.575 9.34998C7.39167 9.53331 7.25 9.74581 7.15 9.98748C7.05 10.2291 7 10.4833 7 10.75V15C7 15.55 7.19583 16.0208 7.5875 16.4125C7.97917 16.8041 8.45 17 9 17H13.225C13.4917 17 13.7458 16.95 13.9875 16.85C14.2292 16.75 14.4417 16.6083 14.625 16.425L19.3 11.75C19.4667 11.5833 19.6417 11.4875 19.825 11.4625C20.0083 11.4375 20.1917 11.4666 20.375 11.55C20.5583 11.6333 20.7083 11.75 20.825 11.9C20.9417 12.05 21 12.2416 21 12.475V19C21 19.55 20.8042 20.0208 20.4125 20.4125C20.0208 20.8041 19.55 21 19 21H5Z" fill="inherit"/>
</svg>
