<svg width="24" height="24" viewBox="0 0 24 24" fill="inherit" xmlns="http://www.w3.org/2000/svg">
<path d="M12 3.00269C6.90487 3.00269 2.77248 7.13431 2.77248 12.2302C2.77248 16.3072 5.41616 19.766 9.08333 20.9864C9.54394 21.0717 9.69312 20.7857 9.69312 20.5427V18.8248C7.12633 19.3831 6.5919 17.736 6.5919 17.736C6.17205 16.6694 5.56688 16.3857 5.56688 16.3857C4.72948 15.8128 5.6307 15.8251 5.6307 15.8251C6.5573 15.8897 7.04482 16.7763 7.04482 16.7763C7.86761 18.1866 9.20329 17.779 9.73003 17.543C9.81231 16.947 10.0515 16.5395 10.316 16.3095C8.2667 16.075 6.11207 15.2837 6.11207 11.7488C6.11207 10.7407 6.47271 9.91794 7.06251 9.27202C6.96715 9.03902 6.65111 8.10012 7.15247 6.8298C7.15247 6.8298 7.92759 6.5822 9.69081 7.77562C10.4267 7.57108 11.2157 7.46881 12 7.46496C12.7843 7.46881 13.5741 7.57108 14.3115 7.77562C16.0732 6.5822 16.8468 6.8298 16.8468 6.8298C17.3489 8.10089 17.0328 9.03979 16.9375 9.27202C17.5296 9.91794 17.8872 10.7415 17.8872 11.7488C17.8872 15.293 15.7287 16.0735 13.674 16.3019C14.0047 16.5879 14.3069 17.1492 14.3069 18.0105V20.5427C14.3069 20.788 14.4545 21.0763 14.9228 20.9856C18.5869 19.7637 21.2275 16.3057 21.2275 12.2302C21.2275 7.13431 17.0959 3.00269 12 3.00269Z" fill="inherit"/>
</svg>
